PathFileType	4	(X/Y/Z)	RBDS024\RBDS024runT25.trc
DataRate	CameraRate	NumFrames	NumMarkers	Units	OrigDataRate	OrigDataStartFrame	OrigNumFrames
150.000000	150.000000	4	33	mm	150.000000	3937	4500
Frame#	Time	L.ASIS			L.Heel.Bottom			L.Heel.Lateral			L.Heel.Top			L.Iliac.Crest			L.MT1			L.MT5			L.PSIS			L.Shank.Bottom.Lateral			L.Shank.Bottom.Medial			L.Shank.Top.Lateral			L.Shank.Top.Medial			L.Thigh.Bottom.Lateral			L.Thigh.Bottom.Medial			L.Thigh.Top.Lateral			L.Thigh.Top.Medial			R.ASIS			R.ASY			R.Heel.Bottom			R.Heel.Lateral			R.Heel.Top			R.Iliac.Crest			R.MT1			R.MT5			R.PSIS			R.Shank.Bottom.Lateral			R.Shank.Bottom.Medial			R.Shank.Top.Lateral			R.Shank.Top.Medial			R.Thigh.Bottom.Lateral			R.Thigh.Bottom.Medial			R.Thigh.Top.Lateral			R.Thigh.Top.Medial			
		X1	Y1	Z1	X2	Y2	Z2	X3	Y3	Z3	X4	Y4	Z4	X5	Y5	Z5	X6	Y6	Z6	X7	Y7	Z7	X8	Y8	Z8	X9	Y9	Z9	X10	Y10	Z10	X11	Y11	Z11	X12	Y12	Z12	X13	Y13	Z13	X14	Y14	Z14	X15	Y15	Z15	X16	Y16	Z16	X17	Y17	Z17	X18	Y18	Z18	X19	Y19	Z19	X20	Y20	Z20	X21	Y21	Z21	X22	Y22	Z22	X23	Y23	Z23	X24	Y24	Z24	X25	Y25	Z25	X26	Y26	Z26	X27	Y27	Z27	X28	Y28	Z28	X29	Y29	Z29	X30	Y30	Z30	X31	Y31	Z31	X32	Y32	Z32	X33	Y33	Z33	

3938	26.24666666666667	2142.873665910458	978.3636395529973	929.3177920484338	2127.613678169728	23.93641457083766	1039.169056357034	2147.408603390882	39.63133583339882	993.5458829342522	2134.158537067909	67.86087995309416	1035.291388934732	2044.930498045	1046.210355344299	880.4091910250478	2351.810912156033	56.48034341192987	1063.95990104964	2311.279277769074	39.02682487330697	952.0318680075005	1962.089689692061	1008.757459150207	993.491514129458	2197.800040817416	159.5597339930253	961.927047743124	2152.880676480126	163.9002687288259	986.2980960142642	2193.321455559942	234.9595106883992	933.5863334524181	2147.519016237763	243.9395309436504	959.1480074719748	2163.377077835004	609.6898136107328	881.2959063082048	2108.125806330778	585.1371668533586	918.7545122461291	2106.339275459577	702.5073866144958	862.7651252101471	2055.54132751245	680.8851840898483	902.0217010540322	2139.07936059046	963.3054239933374	1162.727500508501	1588.840806583167	260.750680938653	1118.547806651736	1525.340198854635	437.0013496856151	1073.678963979102	1536.612150530651	412.912364724782	1125.429094087952	1568.376726333458	433.0739412592469	1082.216687384327	2082.677730722642	1041.599798843718	1209.438677184335	1558.63136627901	220.2930685588553	1061.903191250878	1528.651300657699	256.6150580915309	1168.27521582853	1969.211164949491	1007.539231759868	1098.879440413467	1659.381902399124	411.9004244137462	1154.381613036521	1657.49086577475	444.448944423518	1109.442833439365	1732.619343888936	443.3254230023654	1171.731820452293	1729.64087709526	474.2856872844113	1128.047491571982	1993.368225489279	586.0160119509875	1206.813196027346	1940.003738014854	595.8518621356344	1157.92090520357	1995.915370418108	694.4553233158146	1220.629084220594	1944.20555197659	703.7131611186741	1175.24655872769	
3939	26.25333333333333	2141.491261197615	972.1768707468083	929.5574905619115	2111.469002783789	24.12757964222402	1040.297023623808	2131.805190369023	40.36081968870613	995.1569199241089	2119.471140028026	68.02808286082255	1037.569075069304	2042.648456209803	1038.886956167681	880.2520578132123	2337.220341255466	50.6826294731436	1066.500291122355	2295.868515301564	37.36787192664929	953.5962355970161	1960.357933824586	1001.774538033242	994.6033705046725	2188.250281867128	156.5923761549727	964.6343312968579	2142.957504128336	162.7854903333082	987.9133853732814	2187.178023347949	231.8453887952759	935.5516057460842	2141.122435124984	242.7008929091397	959.988698929372	2164.612944553153	604.9723268824958	881.4132716133807	2109.601785749636	579.8552536794638	918.8003595181975	2106.649886008734	697.1874509501595	862.7764054041346	2055.996856882914	675.1128718790985	902.0013120375455	2138.240157963181	956.2828400907079	1162.993006860706	1593.087645813471	265.4670228170177	1121.049360720626	1534.172353594162	443.0596736624764	1075.044430795613	1545.045298065574	419.1212396088964	1126.970010140312	1577.222031659799	438.2154049721667	1083.466441708392	2081.83859166752	1033.312380509881	1210.265361743411	1561.447406108609	225.3138306077091	1064.974510242939	1533.106154648819	263.4227614628283	1171.205505053216	1967.691429959244	999.6997498642983	1099.580086182562	1667.846459344996	414.131269979437	1155.936601643831	1666.947083097851	446.7842416689018	1111.042264629031	1742.100871741392	443.1462294027378	1173.212416046443	1740.056178938552	474.2357879373288	1129.566546361799	1999.787926284983	577.5143455965648	1207.856455927197	1946.337744652384	585.8752675182193	1158.907199370507	1999.941415177117	686.0187731839637	1221.34363482353	1947.99115487504	693.9135037239345	1175.996746999183	
3940	26.26	2139.921400936257	965.867155951502	929.7940439042852	2095.150714019316	24.55997845300483	1041.362943805982	2115.958341466416	41.38346522205848	996.6903919967205	2104.352346211411	68.43719929610636	1039.718864909681	2040.298570373141	1031.532966957225	879.9519953541727	2322.123004007153	46.37404277480177	1068.863361790065	2280.099541501588	36.6311376602952	955.1097598063787	1958.467722651894	995.0491541115915	995.667829433955	2178.134654111786	154.3239067776733	967.2526550326847	2132.593149108387	162.4265780647971	989.5067517478317	2180.512560706095	229.3232505569399	937.498072500951	2134.353625344053	242.1029344405428	960.8851800233861	2165.444159337656	600.3603275485392	881.5190689419101	2110.789429296391	574.775053286472	919.0464908006021	2106.58599019825	691.9802278675244	862.8081709416676	2056.155677646223	669.5305587354832	902.1528612178693	2137.258304214326	949.1004991935798	1163.195001382212	1598.552881348036	269.8072810970751	1123.57969908271	1543.619867732856	448.3895457798141	1076.464495906679	1554.227110738109	424.6803355113527	1128.55624308094	1586.674477815293	442.7619702588744	1084.784483962893	2080.774185652458	1024.820483289731	1211.02562930947	1565.551394713381	229.879528196762	1068.144531570668	1538.895552506051	269.6740628216479	1174.23968672118	1965.995288772883	992.0116572389741	1100.169382777821	1677.010896304853	415.9990535446976	1157.49126134551	1677.014135894608	448.7635283735746	1112.66841733204	1752.151917851474	442.7215852681949	1174.694564646426	1750.958318450563	473.9471408905772	1131.107267282285	2006.547805864079	569.312761280173	1208.942681154647	1952.926046384213	576.1476839793297	1160.036231578176	2004.210668724302	677.8459288745737	1222.111108968657	1951.975469038784	684.2952275293705	1176.887033452489	
3941	26.26666666666667	2138.187117901457	959.5610640216403	929.965540736536	2078.773458359055	25.1480948358247	1042.313779090818	2099.965919182956	42.55951221046503	998.060962902128	2088.904958572946	69.00601973553061	1041.627180495807	2037.856762081689	1024.290318257673	879.5526945696603	2306.643979548237	43.48474592385941	1070.894105726737	2264.075785660383	36.6023529265817	956.4596760079205	1956.441657884523	988.6746907155681	996.6700295920845	2167.452262457738	152.6907426298292	969.6258251193364	2121.80383748132	162.7206250427465	990.9528869477456	2173.259450474849	227.3358887192364	939.306931913832	2127.16337921074	242.0484388563755	961.7557465144924	2165.800883985032	595.8846792761592	881.654971260851	2111.58264782816	569.9420547655989	919.5004288719477	2106.128263432369	686.948459640454	862.8969799667564	2055.973774324299	664.2150418542968	902.4872859016426	2136.127548191181	941.8743860805979	1163.330006432433	1605.208661882108	273.7049669010617	1126.093769621583	1553.601382957549	452.9883135995304	1077.992780066575	1564.078847267697	429.5462096483815	1130.225367989831	1596.659512574792	446.6954979828211	1086.209567213843	2079.440876319075	1016.274711837831	1211.717876849959	1570.92963980861	233.9431520231875	1071.342823322936	1545.973640367946	275.2535325456148	1177.322543802791	1964.143301630141	984.6138878105997	1100.657076572819	1686.82694719357	417.5154009898286	1159.053148613666	1687.628985611278	450.3969706218061	1114.323013166261	1762.726962300604	442.1012383223554	1176.170980368325	1762.288507948181	473.4676541160517	1132.658270801524	2013.646647318731	561.5343362949448	1210.024918232293	1959.785593374599	566.7940093436811	1161.243758365972	2008.706361032839	670.0513577010621	1222.883592427205	1956.157776770184	674.9703093302943	1177.861792650092	
